# xmcd
#
# Track frame offsets: 
#        183
#        22520
#        45140
#        63115
#        80570
#        101158
#        123695
#        148535
#        167090
#
# Disc length: 2617 seconds
#
# Revision: 0
# Processed by: cddbd v1.5.1PL0 Copyright (c) Steve Scherf et al.
# Submitted via: ExactAudioCopy v0.95a5
#
DISCID=680a3709
DTITLE=Albert Collins - Showdown
DYEAR=1985
DGENRE=Blues
TTITLE0=T-Bone Shuffle 
TTITLE1=The Moon Is Full
TTITLE2=Lion's Den 
TTITLE3=She's Into Something 
TTITLE4=Bring You Fine Self Home 
TTITLE5=Black Cat Bone
TTITLE6=The Dream 
TTITLE7=Albert's Alley
TTITLE8=Blackjack
EXTD=
EXTT0=
EXTT1=
EXTT2=
EXTT3=
EXTT4=
EXTT5=
EXTT6=
EXTT7=
EXTT8=
PLAYORDER=
